<svg width="1024" height="1032" viewBox="0 0 1024 1032" fill="none" xmlns="http://www.w3.org/2000/svg">
<rect width="1024" height="1032" fill="black"/>
<path d="M526.604 842.662C473.739 842.662 426.675 835.453 385.411 821.036C344.146 806.784 309.262 785.82 280.759 758.145C252.255 730.635 230.545 696.994 215.631 657.222C200.716 617.449 193.259 572.207 193.259 521.497C193.259 471.45 200.716 426.043 215.631 385.276C230.711 344.509 252.669 309.542 281.504 280.375C310.339 251.043 345.555 228.505 387.151 212.761C428.912 197.018 476.473 189.146 529.835 189.146C579.22 189.146 623.301 196.355 662.08 210.773C701.024 225.19 734.002 245.74 761.014 272.42C788.192 298.936 808.824 330.505 822.911 367.129C837.162 403.588 844.206 443.94 844.04 488.188C844.206 518.68 841.554 546.687 836.085 572.207C830.616 597.728 821.999 620.018 810.233 639.075C798.633 657.967 783.386 672.965 764.494 684.068C745.602 695.006 722.733 701.22 695.886 702.712C676.663 704.203 661.085 702.795 649.153 698.486C637.222 694.177 628.107 687.797 621.81 679.345C615.678 670.728 611.701 660.702 609.878 649.267H606.895C602.918 659.21 595.129 668.242 583.528 676.362C571.928 684.317 557.759 690.531 541.021 695.006C524.449 699.314 506.8 700.889 488.074 699.729C468.519 698.569 449.958 694.011 432.392 686.057C414.991 678.102 399.497 666.585 385.908 651.504C372.484 636.424 361.878 617.78 354.089 595.574C346.466 573.367 342.572 547.681 342.406 518.514C342.572 489.679 346.632 464.572 354.587 443.195C362.707 421.817 373.396 403.836 386.653 389.253C400.077 374.669 414.991 363.235 431.398 354.949C447.804 346.663 464.293 341.36 480.865 339.04C499.591 336.223 517.323 336.223 534.061 339.04C550.799 341.857 564.885 346.414 576.32 352.712C587.92 359.009 595.129 365.803 597.946 373.095H601.426V345.254H679.232V587.868C679.397 599.303 681.966 608.169 686.938 614.466C691.909 620.763 698.621 623.912 707.072 623.912C718.507 623.912 728.036 618.857 735.659 608.749C743.448 598.64 749.248 583.145 753.06 562.264C757.037 541.384 759.026 514.786 759.026 482.47C759.026 451.315 754.883 423.971 746.597 400.439C738.476 376.741 727.042 356.606 712.293 340.034C697.709 323.296 680.723 309.707 661.334 299.267C641.945 288.827 620.898 281.204 598.195 276.398C575.657 271.592 552.456 269.189 528.592 269.189C487.328 269.189 451.284 275.486 420.46 288.081C389.636 300.51 363.95 317.993 343.401 340.531C322.851 363.069 307.439 389.501 297.165 419.828C287.056 449.989 281.919 482.884 281.753 518.514C281.919 557.79 287.387 592.591 298.159 622.918C309.097 653.079 325.171 678.434 346.384 698.983C367.596 719.532 393.779 735.11 424.935 745.716C456.09 756.322 491.885 761.625 532.321 761.625C551.379 761.625 570.022 760.216 588.251 757.399C606.481 754.748 622.97 751.433 637.719 747.456C652.468 743.644 664.317 739.916 673.266 736.27L697.875 808.358C687.435 814.324 673.266 819.875 655.368 825.013C637.636 830.316 617.584 834.542 595.212 837.69C573.005 841.005 550.136 842.662 526.604 842.662ZM515.169 617.946C535.387 617.946 551.462 614.052 563.393 606.263C575.491 598.474 584.108 586.956 589.246 571.71C594.549 556.298 597.035 537.323 596.703 514.786C596.537 494.899 593.969 478.079 588.997 464.324C584.191 450.403 575.822 439.88 563.891 432.754C552.125 425.463 535.718 421.817 514.672 421.817C496.277 421.817 480.616 425.711 467.69 433.5C454.93 441.289 445.152 452.226 438.358 466.312C431.729 480.233 428.332 496.639 428.166 515.531C428.332 533.098 431.149 549.752 436.618 565.496C442.087 581.073 451.118 593.751 463.713 603.528C476.308 613.14 493.46 617.946 515.169 617.946Z" fill="url(#paint0_linear_687_242)"/>
<defs>
<linearGradient id="paint0_linear_687_242" x1="512" y1="18" x2="512" y2="864" gradientUnits="userSpaceOnUse">
<stop stop-color="#003363"/>
<stop offset="0.850962" stop-color="#7F743C"/>
<stop offset="1" stop-color="#FDB515"/>
</linearGradient>
</defs>
</svg>
